<svg width="277" height="268" viewBox="0 0 277 268" fill="none" xmlns="http://www.w3.org/2000/svg">
<g opacity="0.4" clip-path="url(#clip0_1488_14159)">
<path d="M2.54609 -0.524566C1.10686 -0.315663 0.103512 0.979195 0.305036 2.36759C0.506561 3.75598 1.83665 4.71216 3.27587 4.50325C4.7151 4.29435 5.71847 2.99948 5.51694 1.61108C5.31542 0.222689 3.98532 -0.733469 2.54609 -0.524566Z" fill="#E8BEA8"/>
<path d="M-1.95337 11.2538C-0.216065 11.0016 0.965284 9.97454 0.722022 8.2986C0.478761 6.62266 -0.572346 5.49179 -2.30965 5.74396C-4.04695 5.99612 -5.22829 7.02323 -4.98503 8.69917C-4.74177 10.3751 -3.69067 11.506 -1.95337 11.2538Z" fill="#E8BEA8"/>
<path d="M18.4252 -1.11461C18.2428 -2.37156 17.1917 -3.50244 15.8279 -3.73229C14.4641 -3.96215 13.3435 -2.51607 13.0917 -1.19608C12.8398 0.123921 14.3252 1.19175 15.689 1.42161C17.0528 1.65147 18.1733 0.205388 18.4252 -1.11461Z" fill="#E8BEA8"/>
<path d="M11.3286 8.04232C12.6316 7.85319 13.8129 6.82609 13.6305 5.56914C13.448 4.31218 12.397 3.18132 11.094 3.37045C9.791 3.55957 8.60965 4.58667 8.79209 5.84363C8.97454 7.10058 10.0256 8.23144 11.3286 8.04232Z" fill="#E8BEA8"/>
<path d="M9.33048 12.612C9.14803 11.355 8.09693 10.2241 6.73314 9.99427C5.36935 9.76441 4.24882 11.2105 3.99694 12.5305C3.74506 13.8505 5.23048 14.9183 6.59428 15.1482C7.95807 15.378 9.0786 13.932 9.33048 12.612Z" fill="#E8BEA8"/>
<path d="M4.04065 18.9363C3.8582 17.6794 2.80711 16.5485 1.50413 16.7376C0.201156 16.9268 -0.980182 17.9539 -0.797736 19.2108C-0.615289 20.4678 0.435806 21.5986 1.73878 21.4095C3.04176 21.2204 4.2231 20.1933 4.04065 18.9363Z" fill="#E8BEA8"/>
<path d="M26.9723 2.77617C26.7898 1.51922 25.7387 0.388353 24.4358 0.577479C23.1328 0.766605 21.9515 1.7937 22.1339 3.05065C22.3164 4.30761 23.3674 5.43847 24.6704 5.24935C25.9734 5.06022 27.1547 4.03312 26.9723 2.77617Z" fill="#E8BEA8"/>
<path d="M19.8765 11.9368C21.1794 11.7477 22.3608 10.7206 22.1783 9.46367C21.9959 8.20672 20.9448 7.07585 19.6418 7.26498C18.3389 7.45411 17.1575 8.4812 17.3399 9.73816C17.5224 10.9951 18.5735 12.126 19.8765 11.9368Z" fill="#E8BEA8"/>
<path d="M17.444 16.5652C17.2615 15.3083 16.2104 14.1774 14.9075 14.3665C13.6045 14.5557 12.4231 15.5828 12.6056 16.8397C12.788 18.0967 13.8391 19.2275 15.1421 19.0384C16.4451 18.8493 17.6264 17.8222 17.444 16.5652Z" fill="#E8BEA8"/>
<path d="M12.5885 22.8309C12.4061 21.5739 11.355 20.443 10.052 20.6322C8.74901 20.8213 7.56767 21.8484 7.75012 23.1053C7.93256 24.3623 8.98366 25.4932 10.2866 25.304C11.5896 25.1149 12.7709 24.0878 12.5885 22.8309Z" fill="#E8BEA8"/>
<path d="M4.56202 31.6986C5.865 31.5094 7.04634 30.4823 6.86389 29.2254C6.68145 27.9684 5.63035 26.8376 4.32737 27.0267C3.0244 27.2158 1.84306 28.2429 2.02551 29.4999C2.20795 30.7568 3.25905 31.8877 4.56202 31.6986Z" fill="#E8BEA8"/>
<path d="M-0.727055 38.0267C0.575921 37.8376 1.75728 36.8105 1.57483 35.5535C1.39238 34.2966 0.341285 33.1657 -0.961691 33.3548C-2.26467 33.5439 -3.44602 34.571 -3.26357 35.828C-3.08113 37.0849 -2.03003 38.2158 -0.727055 38.0267Z" fill="#E8BEA8"/>
<path d="M37.2837 -2.57337C35.9807 -2.38424 35.2337 -1.4202 35.3553 -0.582231C35.477 0.255738 36.5281 1.38661 37.3967 1.26052C38.2654 1.13444 39.4467 0.107353 39.3251 -0.730617C39.2035 -1.56859 38.1524 -2.69946 37.2837 -2.57337Z" fill="#E8BEA8"/>
<path d="M35.0259 6.31507C34.8435 5.05811 33.8532 4.34622 32.9237 4.05332C31.9942 3.76042 30.8737 5.2065 30.561 6.10751C30.2483 7.00853 31.7337 8.07635 32.6632 8.36925C33.5927 8.66215 34.7132 7.21608 35.0259 6.31507Z" fill="#E8BEA8"/>
<path d="M28.424 15.8283C29.727 15.6391 30.474 14.6751 30.7867 13.7741C31.0994 12.8731 29.6139 11.8052 28.6845 11.5123C27.755 11.2194 26.6345 12.6655 26.3218 13.5665C26.0091 14.4675 27.4945 15.5354 28.424 15.8283Z" fill="#E8BEA8"/>
<path d="M23.4556 18.2582C22.2562 18.4323 21.4201 19.5113 21.588 20.6683C21.756 21.8253 22.8644 22.6221 24.0637 22.448C25.2631 22.2739 26.0992 21.1949 25.9313 20.0379C25.7633 18.8809 24.6549 18.0841 23.4556 18.2582Z" fill="#E8BEA8"/>
<path d="M21.1972 27.1444C21.0147 25.8874 20.0244 25.1755 19.1558 25.3016C18.2871 25.4277 17.1058 26.4548 17.2274 27.2928C17.349 28.1307 18.4002 29.2616 19.2688 29.1355C20.1375 29.0094 21.3188 27.9823 21.1972 27.1444Z" fill="#E8BEA8"/>
<path d="M13.5442 35.5301C14.8472 35.3409 15.5942 34.3769 15.4726 33.5389C15.3509 32.7009 14.2998 31.5701 13.4312 31.6962C12.5625 31.8222 11.3812 32.8493 11.5028 33.6873C11.6244 34.5253 12.6755 35.6561 13.5442 35.5301Z" fill="#E8BEA8"/>
<path d="M10.1217 39.448C9.93926 38.1911 8.88816 37.0602 7.58519 37.2494C6.28221 37.4385 5.10087 38.4656 5.28332 39.7225C5.46577 40.9795 6.51686 42.1103 7.81984 41.9212C9.12281 41.7321 10.3042 40.705 10.1217 39.448Z" fill="#E8BEA8"/>
<path d="M4.33645 45.4205C4.15401 44.1636 3.16372 43.4517 2.23426 43.1588C1.30479 42.8659 0.184266 44.312 -0.128429 45.213C-0.441123 46.114 1.04431 47.1818 1.97377 47.4747C2.90324 47.7676 4.02376 46.3215 4.33645 45.4205Z" fill="#E8BEA8"/>
<path d="M45.77 0.903176C44.4671 1.0923 43.72 2.05636 43.8417 2.89433C43.9633 3.7323 45.0144 4.86317 45.8831 4.73709C46.7517 4.611 47.9331 3.5839 47.8114 2.74593C47.6898 1.90796 46.6387 0.777091 45.77 0.903176Z" fill="#E8BEA8"/>
<path d="M43.5731 10.2069C43.3907 8.94993 42.8347 8.175 41.5318 8.36413C40.2288 8.55326 39.4209 9.09831 39.6034 10.3553C39.7858 11.6122 40.3418 12.3871 41.6448 12.198C42.9478 12.0089 43.7556 11.4638 43.5731 10.2069Z" fill="#E8BEA8"/>
<path d="M37.345 19.2371C38.2136 19.111 39.4558 18.5029 39.2733 17.2459C39.0909 15.989 38.5349 15.2141 37.232 15.4032C35.929 15.5923 35.1212 16.1374 35.3036 17.3943C35.4861 18.6513 36.042 19.4262 37.345 19.2371Z" fill="#E8BEA8"/>
<path d="M34.5399 24.3514C34.4183 23.5134 33.8015 22.3195 32.4986 22.5087C31.1956 22.6978 30.3877 23.2428 30.5702 24.4998C30.7526 25.7568 31.3086 26.5317 32.6116 26.3426C33.9146 26.1534 34.7224 25.6084 34.5399 24.3514Z" fill="#E8BEA8"/>
<path d="M29.745 31.035C29.6234 30.197 29.0066 29.0031 27.7036 29.1922C26.4007 29.3814 25.5928 29.9264 25.7753 31.1834C25.9577 32.4403 26.5137 33.2153 27.8167 33.0261C29.1196 32.837 29.9275 32.2919 29.745 31.035Z" fill="#E8BEA8"/>
<path d="M22.5266 39.3582C23.8296 39.1691 24.6374 38.624 24.455 37.367C24.2725 36.1101 23.7166 35.3351 22.4136 35.5243C21.1106 35.7134 20.3028 36.2585 20.4852 37.5154C20.6677 38.7724 21.2236 39.5473 22.5266 39.3582Z" fill="#E8BEA8"/>
<path d="M18.7304 43.7616C18.5479 42.5046 17.992 41.7297 16.689 41.9188C15.386 42.1079 14.5782 42.653 14.7606 43.91C14.9431 45.1669 15.499 45.9418 16.802 45.7527C18.105 45.5636 18.9128 45.0185 18.7304 43.7616Z" fill="#E8BEA8"/>
<path d="M12.9452 49.7342C12.7628 48.4773 12.2068 47.7023 10.9038 47.8915C9.60087 48.0806 8.79304 48.6257 8.97548 49.8826C9.15793 51.1396 9.71387 51.9145 11.0169 51.7254C12.3198 51.5362 13.1277 50.9912 12.9452 49.7342Z" fill="#E8BEA8"/>
<path d="M5.17115 57.2801C6.47412 57.0909 7.28196 56.5459 7.09951 55.2889C6.91707 54.032 6.36112 53.257 5.05815 53.4462C3.75517 53.6353 2.94733 54.1803 3.12978 55.4373C3.31223 56.6943 3.86817 57.4692 5.17115 57.2801Z" fill="#E8BEA8"/>
<path d="M-1.10913 62.8933C0.19385 62.7042 1.00168 62.1591 0.819237 60.9022C0.636791 59.6452 0.0808285 58.8703 -1.22215 59.0594C-2.52512 59.2486 -3.33296 59.7936 -3.15051 61.0506C-2.96806 62.3075 -2.4121 63.0825 -1.10913 62.8933Z" fill="#E8BEA8"/>
<path d="M57.8013 1.29645C58.67 1.17037 59.4778 0.62531 59.7297 -0.694686C59.9816 -2.01468 59.0521 -2.30758 57.6883 -2.53744C56.3245 -2.7673 56.0118 -1.8663 55.7599 -0.546301C55.5081 0.773695 56.4375 1.06659 57.8013 1.29645Z" fill="#E8BEA8"/>
<path d="M53.944 5.27933C53.0753 5.40542 52.2675 5.95049 52.0156 7.27049C51.7637 8.59049 52.6932 8.88339 54.057 9.11324C55.4208 9.3431 55.7335 8.44209 55.9854 7.12209C56.2372 5.80209 55.3078 5.50919 53.944 5.27933Z" fill="#E8BEA8"/>
<path d="M51.6861 14.1628C51.5645 13.3249 51.0086 12.5499 50.0791 12.257C49.1496 11.9641 48.4026 12.9282 48.0899 13.8292C47.7772 14.7302 48.7675 15.4421 49.697 15.735C50.6264 16.0279 51.3734 15.0639 51.6861 14.1628Z" fill="#E8BEA8"/>
<path d="M45.7798 19.2977C44.9112 19.4238 43.669 20.0319 43.8515 21.2889C44.0339 22.5458 44.5899 23.3207 45.8928 23.1316C47.1958 22.9425 48.0036 22.3974 47.8212 21.1405C47.6387 19.8835 47.0828 19.1086 45.7798 19.2977Z" fill="#E8BEA8"/>
<path d="M41.0982 29.8199C41.9669 29.6938 42.7747 29.1487 43.0266 27.8287C43.2784 26.5087 42.349 26.2158 40.9852 25.986C39.6214 25.7561 39.3087 26.6571 39.0568 27.9771C38.805 29.2971 39.7344 29.59 41.0982 29.8199Z" fill="#E8BEA8"/>
<path d="M38.2917 34.9299C38.1701 34.0919 37.6141 33.317 36.2503 33.0872C34.8865 32.8573 34.5738 33.7583 34.322 35.0783C34.0701 36.3983 34.9995 36.6912 36.3633 36.9211C37.7271 37.1509 38.0398 36.2499 38.2917 34.9299Z" fill="#E8BEA8"/>
<path d="M31.0732 43.2499C31.9419 43.1239 32.7497 42.5788 33.0624 41.6778C33.3751 40.7768 32.3848 40.0649 31.4553 39.772C30.5259 39.4791 29.7788 40.4431 29.4662 41.3441C29.1535 42.2452 30.1437 42.957 31.0732 43.2499Z" fill="#E8BEA8"/>
<path d="M25.7844 49.5808C26.6531 49.4548 27.8952 48.8466 27.7128 47.5897C27.5303 46.3327 26.9744 45.5578 25.6714 45.7469C24.3684 45.9361 23.5606 46.4811 23.743 47.7381C23.9255 48.995 24.4815 49.77 25.7844 49.5808Z" fill="#E8BEA8"/>
<path d="M19.999 55.5546C20.8676 55.4286 21.6755 54.8835 21.9882 53.9825C22.3009 53.0815 21.3106 52.3696 20.3811 52.0767C19.4516 51.7838 18.7046 52.7478 18.3919 53.6488C18.0792 54.5498 19.0695 55.2617 19.999 55.5546Z" fill="#E8BEA8"/>
<path d="M14.2138 61.5273C15.0825 61.4012 15.8903 60.8561 16.203 59.9551C16.5157 59.0541 15.5254 58.3422 14.596 58.0493C13.6665 57.7564 12.9195 58.7205 12.6068 59.6215C12.2941 60.5225 13.2844 61.2344 14.2138 61.5273Z" fill="#E8BEA8"/>
<path d="M9.86123 65.1561C9.7396 64.3181 9.12284 63.1242 7.81986 63.3133C6.51689 63.5025 5.70905 64.0475 5.8915 65.3045C6.07394 66.5614 6.62989 67.3364 7.93287 67.1472C9.23584 66.9581 10.0437 66.413 9.86123 65.1561Z" fill="#E8BEA8"/>
<path d="M3.14806 70.8347C3.02643 69.9968 2.47046 69.2218 1.54099 68.9289C0.611526 68.636 -0.135494 69.6001 -0.448188 70.5011C-0.760883 71.4021 0.229412 72.114 1.15888 72.4069C2.08834 72.6998 2.83536 71.7357 3.14806 70.8347Z" fill="#E8BEA8"/>
<path d="M66.3486 5.18967C67.2173 5.06359 68.0251 4.51852 67.9035 3.68055C67.7819 2.84258 67.2259 2.06765 66.3573 2.19373C65.4886 2.31981 64.6808 2.86488 64.8024 3.70285C64.924 4.54082 65.48 5.31575 66.3486 5.18967Z" fill="#E8BEA8"/>
<path d="M62.492 9.1742C61.6234 9.30028 60.8155 9.84535 60.9372 10.6833C61.0588 11.5213 61.6148 12.2962 62.4834 12.1701C63.3521 12.0441 64.1599 11.499 64.0383 10.661C63.9166 9.82305 63.3607 9.04811 62.492 9.1742Z" fill="#E8BEA8"/>
<path d="M58.6787 19.5647C59.5474 19.4386 60.3552 18.8935 60.2336 18.0555C60.1119 17.2176 59.556 16.4427 58.6873 16.5687C57.8187 16.6948 57.0108 17.2399 57.1325 18.0779C57.2541 18.9158 57.8101 19.6908 58.6787 19.5647Z" fill="#E8BEA8"/>
<path d="M54.327 23.1937C53.4583 23.3198 52.6505 23.8649 52.7721 24.7028C52.8938 25.5408 53.4497 26.3158 54.3184 26.1897C55.187 26.0636 55.9948 25.5185 55.8732 24.6805C55.7516 23.8426 55.1956 23.0676 54.327 23.1937Z" fill="#E8BEA8"/>
<path d="M49.6455 33.7092C50.5142 33.5831 51.322 33.038 51.2004 32.2001C51.0787 31.3621 50.5228 30.5872 49.6541 30.7133C48.7855 30.8394 47.9776 31.3844 48.0993 32.2224C48.2209 33.0604 48.7769 33.8353 49.6455 33.7092Z" fill="#E8BEA8"/>
<path d="M46.84 38.8212C46.7184 37.9832 46.1624 37.2083 45.2938 37.3344C44.4251 37.4604 43.6173 38.0055 43.7389 38.8435C43.8605 39.6814 44.4165 40.4564 45.2852 40.3303C46.1538 40.2042 46.9616 39.6591 46.84 38.8212Z" fill="#E8BEA8"/>
<path d="M41.55 45.1532C41.4283 44.3152 40.8724 43.5403 40.0037 43.6664C39.1351 43.7925 38.3273 44.3376 38.4489 45.1755C38.5705 46.0135 39.1265 46.7884 39.9951 46.6623C40.8638 46.5362 41.6716 45.9912 41.55 45.1532Z" fill="#E8BEA8"/>
<path d="M35.8263 51.5477C35.7047 50.7098 35.1487 49.9349 34.2801 50.0609C33.4114 50.187 32.6036 50.7321 32.7252 51.5701C32.8469 52.408 33.4028 53.1829 34.2715 53.0569C35.1401 52.9308 35.948 52.3857 35.8263 51.5477Z" fill="#E8BEA8"/>
<path d="M28.9891 56.3851C28.1204 56.5112 27.3126 57.0563 27.4342 57.8943C27.5559 58.7322 28.1118 59.5072 28.9805 59.3811C29.8491 59.255 30.657 58.7099 30.5353 57.8719C30.4137 57.034 29.8577 56.2591 28.9891 56.3851Z" fill="#E8BEA8"/>
<path d="M23.1963 65.3576C24.0649 65.2316 24.8728 64.6865 24.7511 63.8485C24.6295 63.0105 24.0736 62.2356 23.2049 62.3617C22.3363 62.4878 21.5284 63.0329 21.6501 63.8708C21.7717 64.7088 22.3276 65.4837 23.1963 65.3576Z" fill="#E8BEA8"/>
<path d="M18.4709 69.4657C18.3492 68.6277 17.7933 67.8528 16.9246 67.9789C16.056 68.105 15.2481 68.65 15.3698 69.488C15.4914 70.326 16.0474 71.1009 16.916 70.9748C17.7847 70.8487 18.5925 70.3037 18.4709 69.4657Z" fill="#E8BEA8"/>
<path d="M12.1906 75.0829C12.069 74.2449 11.513 73.47 10.6444 73.5961C9.77572 73.7222 8.96788 74.2672 9.08951 75.1052C9.21114 75.9432 9.76711 76.7181 10.6358 76.592C11.5044 76.4659 12.3122 75.9209 12.1906 75.0829Z" fill="#E8BEA8"/>
<path d="M4.35449 82.2092C5.22314 82.0831 6.03098 81.538 5.90935 80.7001C5.78772 79.8621 5.23177 79.0872 4.36312 79.2133C3.49447 79.3393 2.68662 79.8844 2.80825 80.7224C2.92989 81.5604 3.48584 82.3353 4.35449 82.2092Z" fill="#E8BEA8"/>
<path d="M78.2061 1.32639C79.0747 1.2003 79.8825 0.655237 79.7609 -0.182732C79.6393 -1.0207 79.0833 -1.79564 78.2147 -1.66955C77.346 -1.54347 76.5382 -0.998401 76.6598 -0.160431C76.7814 0.677538 77.3374 1.45247 78.2061 1.32639Z" fill="#E8BEA8"/>
<path d="M73.2898 7.1785C73.4115 8.01647 73.9066 8.37241 74.8361 8.66531C75.7655 8.95821 76.0782 8.0572 76.3909 7.15619C76.7036 6.25517 75.7742 5.96228 74.8447 5.66938C73.9152 5.37648 73.6025 6.27749 73.2898 7.1785Z" fill="#E8BEA8"/>
<path d="M71.0399 13.0648C70.1712 13.1909 69.3634 13.736 69.485 14.5739C69.6066 15.4119 70.1626 16.1868 71.0312 16.0608C71.8999 15.9347 72.7077 15.3896 72.5861 14.5516C72.4645 13.7137 71.9085 12.9387 71.0399 13.0648Z" fill="#E8BEA8"/>
<path d="M68.7814 21.9501C68.6598 21.1121 68.1038 20.3372 67.2352 20.4633C66.3665 20.5893 65.5587 21.1344 65.6803 21.9724C65.802 22.8104 66.3579 23.5853 67.2266 23.4592C68.0952 23.3331 68.9031 22.788 68.7814 21.9501Z" fill="#E8BEA8"/>
<path d="M62.9364 27.5023C62.0677 27.6284 61.2599 28.1735 61.3815 29.0115C61.5031 29.8494 62.0591 30.6243 62.9277 30.4983C63.7964 30.3722 64.6042 29.8271 64.4826 28.9891C64.361 28.1512 63.805 27.3762 62.9364 27.5023Z" fill="#E8BEA8"/>
<path d="M59.6877 35.6766C59.566 34.8387 59.0101 34.0637 58.1414 34.1898C57.2728 34.3159 56.4649 34.861 56.5866 35.6989C56.7082 36.5369 57.2642 37.3118 58.1328 37.1858C59.0015 37.0597 59.8093 36.5146 59.6877 35.6766Z" fill="#E8BEA8"/>
<path d="M54.9533 42.7782C54.8317 41.9402 54.2757 41.1653 53.4071 41.2914C52.5384 41.4175 51.7306 41.9625 51.8522 42.8005C51.9738 43.6385 52.5298 44.4134 53.3984 44.2873C54.2671 44.1612 55.0749 43.6162 54.9533 42.7782Z" fill="#E8BEA8"/>
<path d="M50.0978 49.0477C49.9762 48.2098 49.4202 47.4348 48.5516 47.5609C47.6829 47.687 46.8751 48.2321 46.9967 49.07C47.1184 49.908 47.6743 50.6829 48.543 50.5569C49.4116 50.4308 50.2195 49.8857 50.0978 49.0477Z" fill="#E8BEA8"/>
<path d="M43.3135 57.3029C44.1821 57.1769 44.99 56.6318 44.8683 55.7938C44.7467 54.9558 44.1908 54.1809 43.3221 54.307C42.4535 54.4331 41.6456 54.9782 41.7672 55.8161C41.8889 56.6541 42.4448 57.429 43.3135 57.3029Z" fill="#E8BEA8"/>
<path d="M37.5986 60.7006C36.73 60.8267 36.3564 61.3087 36.0437 62.2097C35.731 63.1107 36.6605 63.4037 37.59 63.6966C38.5195 63.9895 38.8321 63.0884 39.1448 62.1874C39.4575 61.2864 38.5281 60.9935 37.5986 60.7006Z" fill="#E8BEA8"/>
<path d="M31.8047 69.6701C32.6734 69.5441 33.4812 68.999 33.3595 68.161C33.2379 67.323 32.682 66.5481 31.8133 66.6742C30.9447 66.8003 30.1368 67.3453 30.2584 68.1833C30.3801 69.0213 30.9361 69.7962 31.8047 69.6701Z" fill="#E8BEA8"/>
<path d="M27.5129 73.7157C27.3912 72.8777 26.8353 72.1028 25.9666 72.2289C25.098 72.355 24.2901 72.9 24.4118 73.738C24.5334 74.576 25.0894 75.3509 25.958 75.2248C26.8267 75.0987 27.6345 74.5537 27.5129 73.7157Z" fill="#E8BEA8"/>
<path d="M21.233 79.3347C21.1114 78.4968 20.6163 78.1408 19.6868 77.8479C18.7573 77.555 18.4446 78.456 18.1319 79.357C17.8192 80.2581 18.7487 80.5509 19.6782 80.8438C20.6076 81.1368 20.9203 80.2357 21.233 79.3347Z" fill="#E8BEA8"/>
<path d="M13.3985 86.4592C14.2671 86.3331 15.0749 85.788 14.9533 84.9501C14.8317 84.1121 14.2757 83.3372 13.4071 83.4633C12.5384 83.5893 11.7306 84.1344 11.8522 84.9724C11.9738 85.8103 12.5298 86.5853 13.3985 86.4592Z" fill="#E8BEA8"/>
<path d="M7.05664 91.6545C7.92529 91.5284 8.73313 90.9834 8.6115 90.1454C8.48987 89.3074 7.93392 88.5325 7.06526 88.6586C6.19661 88.7847 5.38877 89.3297 5.5104 90.1677C5.63203 91.0057 6.18799 91.7806 7.05664 91.6545Z" fill="#E8BEA8"/>
<path d="M0.220717 96.4983C1.08937 96.3722 1.89719 95.8271 1.77556 94.9891C1.65393 94.1512 1.09798 93.3763 0.229329 93.5023C-0.639321 93.6284 -1.44716 94.1735 -1.32553 95.0115C-1.2039 95.8494 -0.647934 96.6243 0.220717 96.4983Z" fill="#E8BEA8"/>
<path d="M87.1272 4.74065C87.9958 4.61457 88.4301 4.55153 88.682 3.23153C88.9339 1.91154 88.4996 1.97459 87.1358 1.74473C85.772 1.51487 85.8328 1.93385 85.5809 3.25385C85.3291 4.57385 85.7634 4.5108 87.1272 4.74065Z" fill="#E8BEA8"/>
<path d="M83.3835 12.5541C84.2522 12.428 84.6257 11.946 84.9384 11.045C85.2511 10.144 84.3216 9.85105 83.3921 9.55815C82.4627 9.26525 82.15 10.1663 81.8373 11.0673C81.5246 11.9683 82.454 12.2612 83.3835 12.5541Z" fill="#E8BEA8"/>
<path d="M79.5783 19.9516C80.447 19.8255 80.8813 19.7625 81.1332 18.4425C81.3851 17.1225 80.9508 17.1855 79.587 16.9557C78.2232 16.7258 78.284 17.1448 78.0321 18.4648C77.7802 19.7848 78.2145 19.7217 79.5783 19.9516Z" fill="#E8BEA8"/>
<path d="M76.8342 25.4852C76.7125 24.6473 76.6517 24.2283 75.3487 24.4174C74.0458 24.6065 74.0458 24.6065 74.2282 25.8635C74.4107 27.1204 74.4107 27.1204 75.7136 26.9313C77.0166 26.7422 77.0166 26.7422 76.8342 25.4852Z" fill="#E8BEA8"/>
<path d="M69.9284 32.9025C70.05 33.7405 70.1108 34.1595 71.4138 33.9704C72.7168 33.7812 72.7168 33.7812 72.5343 32.5243C72.3519 31.2673 72.3519 31.2673 71.0489 31.4565C69.746 31.6456 69.746 31.6456 69.9284 32.9025Z" fill="#E8BEA8"/>
<path d="M68.2355 39.5673C68.1139 38.7293 68.0531 38.3103 66.7501 38.4994C65.4471 38.6886 65.4471 38.6885 65.6296 39.9455C65.812 41.2025 65.812 41.2025 67.115 41.0133C68.418 40.8242 68.418 40.8242 68.2355 39.5673Z" fill="#E8BEA8"/>
<path d="M63.5006 46.6746C63.379 45.8366 62.8838 45.4807 61.9544 45.1878C61.0249 44.8949 60.7122 45.7959 60.3995 46.6969C60.0868 47.5979 61.0163 47.8908 61.9458 48.1837C62.8752 48.4766 63.1879 47.5756 63.5006 46.6746Z" fill="#E8BEA8"/>
<path d="M58.6447 52.9384C58.5231 52.1004 58.4623 51.6814 57.1593 51.8705C55.8563 52.0596 55.8563 52.0597 56.0388 53.3166C56.2212 54.5736 56.2212 54.5736 57.5242 54.3844C58.8272 54.1953 58.8271 54.1953 58.6447 52.9384Z" fill="#E8BEA8"/>
<path d="M51.8005 60.779C52.6692 60.6529 53.1035 60.5898 52.9211 59.3329C52.7386 58.0759 52.7386 58.0759 51.4357 58.2651C50.1327 58.4542 50.1327 58.4542 50.3151 59.7111C50.4976 60.9681 50.4976 60.9681 51.8005 60.779Z" fill="#E8BEA8"/>
<path d="M46.5104 67.1088C47.3791 66.9827 47.7526 66.5007 48.0653 65.5997C48.378 64.6986 47.4485 64.4057 46.5191 64.1128C45.5896 63.8199 45.2769 64.721 44.9642 65.622C44.6515 66.523 45.581 66.8159 46.5104 67.1088Z" fill="#E8BEA8"/>
<path d="M42.341 71.993C42.2194 71.1551 42.1585 70.7361 40.8556 70.9252C39.5526 71.1144 39.5526 71.1143 39.735 72.3713C39.9175 73.6283 39.9175 73.6283 41.2205 73.4391C42.5234 73.25 42.5234 73.25 42.341 71.993Z" fill="#E8BEA8"/>
<path d="M34.9402 79.0524C35.8088 78.9263 36.2432 78.8633 36.0607 77.6063C35.8783 76.3494 35.8783 76.3494 34.5753 76.5385C33.2723 76.7276 33.2723 76.7276 33.4548 77.9846C33.6372 79.2415 33.6372 79.2415 34.9402 79.0524Z" fill="#E8BEA8"/>
<path d="M28.7205 85.0876C29.5891 84.9615 30.0234 84.8984 29.841 83.6415C29.6585 82.3845 29.6585 82.3845 28.3556 82.5736C27.0526 82.7628 27.0526 82.7628 27.235 84.0197C27.4175 85.2767 27.4175 85.2767 28.7205 85.0876Z" fill="#E8BEA8"/>
<path d="M23.9953 89.2001C23.8737 88.3621 23.8128 87.9431 22.5099 88.1323C21.2069 88.3214 21.2069 88.3214 21.3893 89.5783C21.5718 90.8353 21.5718 90.8353 22.8748 90.6462C24.1777 90.457 24.1777 90.457 23.9953 89.2001Z" fill="#E8BEA8"/>
<path d="M16.0993 95.9057C16.968 95.7796 17.3415 95.2975 17.6542 94.3965C17.9669 93.4955 17.0374 93.2026 16.1079 92.9097C15.1785 92.6168 14.8658 93.5178 14.5531 94.4188C14.2404 95.3198 15.1699 95.6128 16.0993 95.9057Z" fill="#E8BEA8"/>
<path d="M9.33213 98.1713C8.46348 98.2974 8.02914 98.3604 8.21159 99.6174C8.39404 100.874 8.39405 100.874 9.69703 100.685C11 100.496 11 100.496 10.8176 99.2391C10.6351 97.9822 10.6351 97.9822 9.33213 98.1713Z" fill="#E8BEA8"/>
<path d="M2.48799 106.011C3.35664 105.885 3.73015 105.403 4.04285 104.502C4.35554 103.601 3.42608 103.308 2.49661 103.015C1.56715 102.722 1.25445 103.623 0.941753 104.524C0.629059 105.425 1.55852 105.718 2.48799 106.011Z" fill="#E8BEA8"/>
<path d="M98.5505 0.943032C99.4192 0.816948 99.8535 0.753919 99.7319 -0.0840504C99.6103 -0.92202 99.5494 -1.34102 98.6808 -1.21493C97.8121 -1.08885 97.3778 -1.0258 97.4994 -0.187834C97.6211 0.650135 97.6819 1.06912 98.5505 0.943032Z" fill="#E8BEA8"/>
<path d="M95.6746 8.63053C96.5432 8.50445 96.9775 8.4414 96.8559 7.60343C96.7343 6.76546 96.6735 6.34648 95.8048 6.47256C94.9362 6.59865 94.5018 6.6617 94.6235 7.49967C94.7451 8.33764 94.8059 8.75662 95.6746 8.63053Z" fill="#E8BEA8"/>
<path d="M91.8699 16.029C92.7385 15.9029 93.1728 15.8398 92.9904 14.5829C92.808 13.3259 92.808 13.3259 91.505 13.5151C90.202 13.7042 90.202 13.7042 90.3845 14.9611C90.5669 16.2181 90.5669 16.2181 91.8699 16.029Z" fill="#E8BEA8"/>
<path d="M88.0652 23.4274C88.9338 23.3013 89.3682 23.2383 89.2465 22.4003C89.1249 21.5623 89.0641 21.1434 88.1954 21.2694C87.3268 21.3955 86.8925 21.4586 87.0141 22.2965C87.1357 23.1345 87.1965 23.5535 88.0652 23.4274Z" fill="#E8BEA8"/>
<path d="M84.3302 28.246C83.4615 28.3721 83.0272 28.4351 83.1489 29.2731C83.2705 30.1111 83.3313 30.5301 84.2 30.404C85.0686 30.2779 85.5029 30.2148 85.3813 29.3769C85.2597 28.5389 85.1988 28.1199 84.3302 28.246Z" fill="#E8BEA8"/>
<path d="M79.9617 37.8688C80.8303 37.7427 81.2647 37.6797 81.143 36.8417C81.0214 36.0038 80.9606 35.5848 80.0919 35.7108C79.2233 35.8369 78.7889 35.9 78.9106 36.7379C79.0322 37.5759 79.093 37.9949 79.9617 37.8688Z" fill="#E8BEA8"/>
<path d="M76.7827 43.4628C76.7219 43.0438 76.6002 42.2059 75.7316 42.3319C74.8629 42.458 74.4286 42.5211 74.5502 43.359C74.6719 44.197 74.7327 44.616 75.6013 44.4899C76.47 44.3638 76.9043 44.3008 76.7827 43.4628Z" fill="#E8BEA8"/>
<path d="M70.8669 51.5954C71.7356 51.4693 72.1699 51.4062 72.0483 50.5683C71.9267 49.7303 71.8659 49.3113 70.9972 49.4374C70.1286 49.5635 69.6942 49.6265 69.8159 50.4645C69.9375 51.3025 69.9983 51.7215 70.8669 51.5954Z" fill="#E8BEA8"/>
<path d="M67.1928 56.8339C67.0712 55.9959 67.0104 55.577 66.1417 55.703C65.2731 55.8291 64.8388 55.8922 64.9604 56.7301C65.082 57.5681 65.1428 57.9871 66.0115 57.861C66.8801 57.7349 67.3145 57.6719 67.1928 56.8339Z" fill="#E8BEA8"/>
<path d="M60.782 64.6071C61.6506 64.481 62.085 64.418 61.9633 63.58C61.8417 62.742 61.7809 62.323 60.9122 62.4491C60.0436 62.5752 59.6093 62.6383 59.7309 63.4762C59.8525 64.3142 59.9133 64.7332 60.782 64.6071Z" fill="#E8BEA8"/>
<path d="M55.0574 71.0016C55.926 70.8755 56.3604 70.8125 56.2387 69.9745C56.1171 69.1366 56.0563 68.7176 55.1876 68.8437C54.319 68.9697 53.8846 69.0328 54.0063 69.8708C54.1279 70.7087 54.1887 71.1277 55.0574 71.0016Z" fill="#E8BEA8"/>
<path d="M49.7683 77.3298C50.637 77.2037 51.0713 77.1406 50.9497 76.3027C50.828 75.4647 50.7672 75.0457 49.8986 75.1718C49.0299 75.2979 48.5956 75.3609 48.7172 76.1989C48.8388 77.0369 48.8997 77.4558 49.7683 77.3298Z" fill="#E8BEA8"/>
<path d="M43.9832 83.3024C44.8518 83.1763 45.2861 83.1133 45.1645 82.2753C45.0429 81.4373 44.9821 81.0184 44.1134 81.1444C43.2448 81.2705 42.8104 81.3336 42.9321 82.1715C43.0537 83.0095 43.1145 83.4285 43.9832 83.3024Z" fill="#E8BEA8"/>
<path d="M37.8331 86.7616C37.3988 86.8247 36.5302 86.9508 36.6518 87.7887C36.7734 88.6267 36.8342 89.0457 37.7029 88.9196C38.5715 88.7935 39.0059 88.7305 38.8842 87.8925C38.7626 87.0545 38.7018 86.6355 37.8331 86.7616Z" fill="#E8BEA8"/>
<path d="M30.4514 93.454C30.4561 94.1559 31.049 94.7154 31.7756 94.7037C32.5022 94.692 33.0874 94.1135 33.0827 93.4116C33.078 92.7097 32.4852 92.1501 31.7586 92.1618C31.0319 92.1736 30.4467 92.7521 30.4514 93.454Z" fill="#E8BEA8"/>
<path d="M25.1423 100.154C26.011 100.028 26.4453 99.9648 26.3237 99.1269C26.2021 98.2889 26.1412 97.8699 25.2726 97.996C24.4039 98.1221 23.9696 98.1851 24.0912 99.0231C24.2129 99.8611 24.2737 100.28 25.1423 100.154Z" fill="#E8BEA8"/>
<path d="M18.4366 102.839C17.717 102.944 17.2153 103.591 17.3161 104.285C17.4169 104.98 18.0819 105.458 18.8015 105.353C19.5211 105.249 20.0228 104.601 19.922 103.907C19.8213 103.213 19.1562 102.735 18.4366 102.839Z" fill="#E8BEA8"/>
<path d="M10.1688 108.941C10.1608 109.643 10.7434 110.213 11.47 110.213C12.1965 110.214 12.792 109.645 12.8 108.943C12.808 108.241 12.2254 107.671 11.4988 107.671C10.7723 107.67 10.1768 108.239 10.1688 108.941Z" fill="#E8BEA8"/>
<path d="M5.12867 115.041C5.99732 114.915 6.43164 114.852 6.24919 113.595C6.06675 112.338 6.06675 112.338 4.76378 112.527C3.4608 112.716 3.46079 112.716 3.64323 113.973C3.82568 115.23 3.82569 115.23 5.12867 115.041Z" fill="#E8BEA8"/>
<path d="M108.218 3.3925C108.157 2.97351 108.036 2.13554 107.167 2.26163C106.298 2.38771 105.864 2.45076 105.986 3.28873C106.107 4.1267 106.168 4.54568 107.037 4.41959C107.906 4.29351 108.34 4.23047 108.218 3.3925Z" fill="#E8BEA8"/>
<path d="M104.162 12.1071C104.596 12.0441 105.465 11.918 105.343 11.08C105.222 10.242 105.161 9.82305 104.292 9.94913C103.423 10.0752 102.989 10.1382 103.111 10.9762C103.232 11.8142 103.293 12.2332 104.162 12.1071Z" fill="#E8BEA8"/>
<path d="M100.418 19.9235C100.852 19.8605 101.721 19.7344 101.599 18.8964C101.477 18.0584 101.417 17.6395 100.548 17.7655C99.6793 17.8916 99.245 17.9547 99.3666 18.7926C99.4883 19.6306 99.5491 20.0496 100.418 19.9235Z" fill="#E8BEA8"/>
<path d="M95.5629 26.1872C95.6237 26.6062 95.7454 27.4441 96.614 27.318C97.4827 27.1919 97.917 27.1289 97.7954 26.2909C97.6737 25.453 97.6129 25.034 96.7443 25.1601C95.8756 25.2862 95.4413 25.3492 95.5629 26.1872Z" fill="#E8BEA8"/>
<path d="M92.7488 34.2985C93.1831 34.2355 94.0518 34.1094 93.9301 33.2714C93.8085 32.4334 93.7477 32.0144 92.879 32.1405C92.0104 32.2666 91.5761 32.3297 91.6977 33.1676C91.8193 34.0056 91.8801 34.4246 92.7488 34.2985Z" fill="#E8BEA8"/>
<path d="M88.448 41.3376C88.8823 41.2745 89.751 41.1484 89.6293 40.3105C89.5077 39.4725 89.4469 39.0535 88.5782 39.1796C87.7096 39.3057 87.2753 39.3687 87.3969 40.2067C87.5185 41.0447 87.5793 41.4636 88.448 41.3376Z" fill="#E8BEA8"/>
<path d="M84.2784 46.2226C83.8441 46.2856 82.9755 46.4117 83.0971 47.2497C83.2187 48.0876 83.2795 48.5066 84.1482 48.3805C85.0168 48.2544 85.4512 48.1914 85.3295 47.3534C85.2079 46.5155 85.1471 46.0965 84.2784 46.2226Z" fill="#E8BEA8"/>
<path d="M79.545 53.328C79.1107 53.3911 78.2421 53.5172 78.3637 54.3551C78.4853 55.1931 78.5461 55.6121 79.4148 55.486C80.2834 55.3599 80.7178 55.2969 80.5961 54.4589C80.4745 53.6209 80.4137 53.202 79.545 53.328Z" fill="#E8BEA8"/>
<path d="M74.6199 62.1696C75.0542 62.1066 75.9229 61.9805 75.8012 61.1425C75.6796 60.3045 75.6188 59.8855 74.7501 60.0116C73.8815 60.1377 73.4471 60.2008 73.5688 61.0387C73.6904 61.8767 73.7512 62.2957 74.6199 62.1696Z" fill="#E8BEA8"/>
<path d="M70.5112 67.4706C70.4504 67.0516 70.3287 66.2137 69.4601 66.3398C68.5914 66.4658 68.1571 66.5289 68.2787 67.3668C68.4004 68.2048 68.4612 68.6238 69.3298 68.4977C70.1985 68.3716 70.6328 68.3086 70.5112 67.4706Z" fill="#E8BEA8"/>
<path d="M64.0398 74.8298C64.4741 74.7667 65.3428 74.6406 65.2211 73.8027C65.0995 72.9647 65.0387 72.5457 64.17 72.6718C63.3014 72.7979 62.8671 72.8609 62.9887 73.6989C63.1103 74.5369 63.1712 74.9558 64.0398 74.8298Z" fill="#E8BEA8"/>
<path d="M58.4464 79.0624C58.0121 79.1255 57.1434 79.2515 57.2651 80.0895C57.3867 80.9275 57.4475 81.3465 58.3162 81.2204C59.1848 81.0943 59.6191 81.0312 59.4975 80.1933C59.3759 79.3553 59.3151 78.9363 58.4464 79.0624Z" fill="#E8BEA8"/>
<path d="M52.9646 87.1305C53.3989 87.0675 54.2676 86.9414 54.1459 86.1034C54.0243 85.2655 53.9635 84.8465 53.0948 84.9726C52.2262 85.0987 51.7919 85.1617 51.9135 85.9997C52.0351 86.8376 52.0959 87.2566 52.9646 87.1305Z" fill="#E8BEA8"/>
<path d="M46.8754 91.0127C46.3956 91.0823 46.0612 91.5139 46.1284 91.9767C46.1956 92.4395 46.6389 92.7582 47.1187 92.6886C47.5984 92.619 47.9328 92.1873 47.8657 91.7245C47.7985 91.2617 47.3551 90.943 46.8754 91.0127Z" fill="#E8BEA8"/>
<path d="M40.6566 97.0478C40.1769 97.1174 39.8424 97.5491 39.9096 98.0119C39.9768 98.4747 40.4202 98.7934 40.8999 98.7237C41.3796 98.6541 41.7141 98.2225 41.6469 97.7597C41.5797 97.2969 41.1364 96.9782 40.6566 97.0478Z" fill="#E8BEA8"/>
<path d="M35.3667 103.377C35.3058 102.958 35.1842 102.12 34.3156 102.246C33.4469 102.372 33.0126 102.435 33.1342 103.273C33.2558 104.111 33.3167 104.53 34.1853 104.404C35.054 104.278 35.4883 104.215 35.3667 103.377Z" fill="#E8BEA8"/>
<path d="M29.0258 108.576C28.965 108.157 28.8434 107.319 27.9747 107.445C27.1061 107.571 26.6718 107.634 26.7934 108.472C26.915 109.31 26.9758 109.729 27.8445 109.603C28.7131 109.477 29.1475 109.414 29.0258 108.576Z" fill="#E8BEA8"/>
<path d="M21.1984 112.707C20.764 112.77 19.8954 112.896 20.017 113.734C20.1387 114.572 20.1995 114.991 21.0681 114.865C21.9368 114.739 22.3711 114.676 22.2495 113.838C22.1278 113 22.067 112.581 21.1984 112.707Z" fill="#E8BEA8"/>
<path d="M14.3624 117.547C13.9281 117.61 13.0595 117.736 13.1811 118.574C13.3027 119.412 13.3635 119.831 14.2322 119.705C15.1008 119.579 15.5352 119.516 15.4135 118.678C15.2919 117.84 15.2311 117.421 14.3624 117.547Z" fill="#E8BEA8"/>
<path d="M7.39623 124.549C7.83056 124.485 8.69922 124.359 8.57759 123.521C8.45596 122.683 8.39514 122.264 7.52649 122.391C6.65784 122.517 6.22352 122.58 6.34515 123.418C6.46678 124.256 6.52758 124.675 7.39623 124.549Z" fill="#E8BEA8"/>
<path d="M0.438239 128.552C0.872564 128.489 1.74121 128.363 1.61958 127.525C1.49795 126.687 1.43713 126.268 0.56848 126.394C-0.30017 126.521 -0.734493 126.584 -0.612862 127.422C-0.491231 128.26 -0.430412 128.678 0.438239 128.552Z" fill="#E8BEA8"/>
<path d="M118.651 -1.1202C118.216 -1.05715 117.782 -0.994108 117.469 -0.0930967C117.157 0.807915 117.591 0.744869 118.52 1.03777C119.45 1.33067 119.389 0.911683 119.702 0.0106711C120.014 -0.89034 119.58 -0.827295 118.651 -1.1202Z" fill="#E8BEA8"/>
<path d="M115.776 6.57121C115.341 6.63425 114.907 6.6973 114.594 7.59831C114.282 8.49932 114.716 8.43628 115.645 8.72918C116.575 9.02208 116.514 8.60309 116.827 7.70208C117.139 6.80107 116.705 6.86411 115.776 6.57121Z" fill="#E8BEA8"/>
<path d="M112.709 16.0011C113.144 15.938 113.578 15.875 113.456 15.037C113.335 14.1991 113.335 14.1991 112.466 14.3252C111.598 14.4512 111.598 14.4512 111.719 15.2892C111.841 16.1272 111.841 16.1272 112.709 16.0011Z" fill="#E8BEA8"/>
<path d="M109.096 21.6611C108.662 21.7241 108.227 21.7871 107.915 22.6882C107.602 23.5892 108.036 23.5261 108.966 23.819C109.895 24.1119 109.834 23.6929 110.147 22.7919C110.46 21.8909 110.025 21.954 109.096 21.6611Z" fill="#E8BEA8"/>
<path d="M105.1 30.7959C105.534 30.7328 105.969 30.6698 106.281 29.7688C106.594 28.8678 106.16 28.9308 105.23 28.6379C104.301 28.345 104.361 28.764 104.049 29.665C103.736 30.566 104.17 30.503 105.1 30.7959Z" fill="#E8BEA8"/>
<path d="M100.381 37.2076C100.384 37.6756 100.78 38.0486 101.264 38.0407C101.749 38.0329 102.139 37.6473 102.136 37.1793C102.132 36.7114 101.737 36.3384 101.253 36.3462C100.768 36.354 100.378 36.7397 100.381 37.2076Z" fill="#E8BEA8"/>
<path d="M97.1869 43.497C96.7526 43.5601 96.3183 43.6231 96.4399 44.4611C96.5615 45.299 96.5615 45.299 97.4302 45.173C98.2988 45.0469 98.2988 45.0469 98.1772 44.2089C98.0556 43.3709 98.0556 43.3709 97.1869 43.497Z" fill="#E8BEA8"/>
<path d="M93.8779 51.2477C93.8171 50.8287 93.7563 50.4097 92.8268 50.1168C91.8974 49.8239 91.9582 50.2429 91.6455 51.1439C91.3328 52.0449 91.7671 51.9819 92.6966 52.2748C93.6261 52.5677 93.5653 52.1487 93.8779 51.2477Z" fill="#E8BEA8"/>
<path d="M88.092 57.2236C87.6577 57.2866 87.2234 57.3496 86.9107 58.2506C86.598 59.1516 87.0323 59.0886 87.9618 59.3815C88.8912 59.6744 88.8304 59.2554 89.1431 58.3544C89.4558 57.4534 89.0215 57.5165 88.092 57.2236Z" fill="#E8BEA8"/>
<path d="M84.2881 64.6188C84.2273 64.1998 84.1665 63.7808 83.237 63.4879C82.3075 63.195 82.3684 63.614 82.0557 64.515C81.743 65.416 82.1773 65.353 83.1067 65.6459C84.0362 65.9388 83.9754 65.5198 84.2881 64.6188Z" fill="#E8BEA8"/>
<path d="M79.059 71.3691C78.9982 70.9501 78.9374 70.5311 78.0688 70.6572C77.2001 70.7833 77.2001 70.7833 77.3217 71.6212C77.4434 72.4592 77.4434 72.4592 78.312 72.3331C79.1807 72.207 79.1807 72.207 79.059 71.3691Z" fill="#E8BEA8"/>
<path d="M73.0218 78.6592C73.4561 78.5961 73.8904 78.5331 74.2031 77.6321C74.5158 76.7311 74.0815 76.7941 73.152 76.5012C72.2225 76.2083 72.2833 76.6273 71.9707 77.5283C71.658 78.4293 72.0923 78.3663 73.0218 78.6592Z" fill="#E8BEA8"/>
<path d="M67.4895 83.3134C67.0551 83.3764 66.6208 83.4395 66.3081 84.3405C65.9954 85.2415 66.4298 85.1785 67.3592 85.4714C68.2887 85.7643 68.2279 85.3453 68.5406 84.4443C68.8533 83.5433 68.4189 83.6063 67.4895 83.3134Z" fill="#E8BEA8"/>
<path d="M61.7043 89.2861C61.27 89.3491 60.8357 89.4121 60.523 90.3132C60.2103 91.2142 60.6446 91.1511 61.5741 91.444C62.5035 91.7369 62.4427 91.3179 62.7554 90.4169C63.0681 89.5159 62.6338 89.579 61.7043 89.2861Z" fill="#E8BEA8"/>
<path d="M55.7278 96.999C56.1621 96.936 56.5965 96.8729 56.9092 95.9719C57.2218 95.0709 56.7875 95.1339 55.8581 94.841C54.9286 94.5481 54.9894 94.9671 54.6767 95.8681C54.364 96.7692 54.7983 96.7061 55.7278 96.999Z" fill="#E8BEA8"/>
<path d="M49.6379 100.876C49.2036 100.939 48.7693 101.002 48.4566 101.903C48.1439 102.804 48.5782 102.741 49.5077 103.034C50.4371 103.327 50.3763 102.908 50.689 102.007C51.0017 101.106 50.5674 101.169 49.6379 100.876Z" fill="#E8BEA8"/>
<path d="M44.4092 107.627C44.3484 107.208 44.2876 106.789 43.3581 106.496C42.4286 106.203 42.4895 106.622 42.1768 107.523C41.8641 108.424 42.2984 108.361 43.2279 108.654C44.1573 108.947 44.0965 108.528 44.4092 107.627Z" fill="#E8BEA8"/>
<path d="M38.0678 112.822C38.007 112.403 37.8854 111.565 37.0167 111.691C36.1481 111.817 35.7138 111.88 35.8354 112.718C35.957 113.556 36.0178 113.975 36.8865 113.849C37.7551 113.723 38.1895 113.66 38.0678 112.822Z" fill="#E8BEA8"/>
<path d="M31.2934 118.084C31.2326 117.665 31.1718 117.246 30.3031 117.372C29.4345 117.498 29.4345 117.498 29.5561 118.336C29.6777 119.174 29.6777 119.174 30.5464 119.048C31.415 118.922 31.415 118.922 31.2934 118.084Z" fill="#E8BEA8"/>
<path d="M23.9008 122.153C23.4665 122.216 23.0321 122.279 23.1538 123.117C23.2754 123.955 23.2754 123.955 24.1441 123.829C25.0127 123.703 25.0127 123.703 24.8911 122.865C24.7694 122.027 24.7694 122.027 23.9008 122.153Z" fill="#E8BEA8"/>
<path d="M17.0647 126.997C16.6303 127.06 16.196 127.123 15.8833 128.024C15.5706 128.925 16.0049 128.862 16.9344 129.155C17.8639 129.448 17.8031 129.029 18.1158 128.128C18.4285 127.227 17.9941 127.29 17.0647 126.997Z" fill="#E8BEA8"/>
<path d="M9.79337 131.899C9.31363 131.969 8.97918 132.401 9.04635 132.863C9.11353 133.326 9.55689 133.645 10.0366 133.575C10.5164 133.506 10.8508 133.074 10.7836 132.611C10.7165 132.148 10.2731 131.83 9.79337 131.899Z" fill="#E8BEA8"/>
<path d="M2.83633 135.907C2.402 135.97 1.96767 136.033 2.0893 136.871C2.21094 137.709 2.21094 137.709 3.07959 137.583C3.94824 137.457 3.94824 137.457 3.82661 136.619C3.70498 135.781 3.70498 135.781 2.83633 135.907Z" fill="#E8BEA8"/>
<path d="M127.198 2.77436C126.763 2.8374 126.329 2.90044 126.451 3.73841C126.572 4.57638 126.572 4.57639 127.441 4.4503C128.31 4.32422 128.31 4.32422 128.188 3.48625C128.066 2.64828 128.066 2.64827 127.198 2.77436Z" fill="#E8BEA8"/>
<path d="M123.423 11.0435C123.426 11.5115 123.822 11.8845 124.306 11.8767C124.791 11.8689 125.181 11.4832 125.178 11.0152C125.174 10.5473 124.779 10.1743 124.295 10.1821C123.81 10.1899 123.42 10.5756 123.423 11.0435Z" fill="#E8BEA8"/>
<path d="M120.206 18.7619C120.267 19.1808 120.328 19.5998 121.197 19.4737C122.065 19.3477 122.065 19.3477 121.944 18.5097C121.822 17.6717 121.822 17.6717 120.954 17.7978C120.085 17.9239 120.085 17.9239 120.206 18.7619Z" fill="#E8BEA8"/>
<path d="M117.453 27.2901C117.887 27.2271 118.321 27.1641 118.2 26.3261C118.078 25.4881 118.078 25.4881 117.209 25.6142C116.341 25.7403 116.341 25.7403 116.462 26.5783C116.584 27.4162 116.584 27.4162 117.453 27.2901Z" fill="#E8BEA8"/>
<path d="M113.587 34.2667C114.022 34.2037 114.456 34.1406 114.334 33.3027C114.213 32.4647 114.213 32.4647 113.344 32.5908C112.475 32.7168 112.475 32.7169 112.597 33.5548C112.719 34.3928 112.719 34.3928 113.587 34.2667Z" fill="#E8BEA8"/>
<path d="M108.792 40.9533C108.853 41.3722 108.914 41.7912 109.783 41.6651C110.651 41.5391 110.651 41.5391 110.53 40.7011C110.408 39.8631 110.408 39.8631 109.539 39.9892C108.671 40.1153 108.671 40.1153 108.792 40.9533Z" fill="#E8BEA8"/>
<path d="M105.735 47.3877C105.3 47.4507 104.866 47.5137 104.988 48.3517C105.109 49.1897 105.109 49.1897 105.978 49.0636C106.847 48.9375 106.847 48.9375 106.725 48.0995C106.603 47.2616 106.603 47.2616 105.735 47.3877Z" fill="#E8BEA8"/>
<path d="M101.991 55.205C101.93 54.786 101.869 54.367 101 54.4931C100.132 54.6192 100.132 54.6192 100.253 55.4572C100.375 56.2952 100.375 56.2951 101.244 56.1691C102.112 56.043 102.112 56.043 101.991 55.205Z" fill="#E8BEA8"/>
<path d="M96.64 61.1142C96.2057 61.1772 95.7714 61.2403 95.893 62.0783C96.0146 62.9162 96.0146 62.9162 96.8833 62.7901C97.7519 62.6641 97.752 62.6641 97.6303 61.8261C97.5087 60.9881 97.5087 60.9881 96.64 61.1142Z" fill="#E8BEA8"/>
<path d="M91.8451 67.8017C91.4108 67.8647 90.9765 67.9278 91.0981 68.7658C91.2197 69.6037 91.2197 69.6037 92.0884 69.4776C92.957 69.3516 92.957 69.3516 92.8354 68.5136C92.7138 67.6756 92.7138 67.6756 91.8451 67.8017Z" fill="#E8BEA8"/>
<path d="M87.6059 75.2597C87.5451 74.8407 87.4843 74.4217 86.6156 74.5478C85.747 74.6739 85.747 74.6739 85.8686 75.5119C85.9902 76.3498 85.9902 76.3498 86.8589 76.2237C87.7275 76.0977 87.7275 76.0977 87.6059 75.2597Z" fill="#E8BEA8"/>
<path d="M82.3774 82.0097C82.3166 81.5907 82.2558 81.1717 81.3871 81.2978C80.5185 81.4239 80.5185 81.4239 80.6401 82.2619C80.7617 83.0998 80.7617 83.0998 81.6304 82.9737C82.499 82.8477 82.499 82.8477 82.3774 82.0097Z" fill="#E8BEA8"/>
<path d="M76.2798 88.8839C76.7141 88.8209 77.1484 88.7578 77.0268 87.9198C76.9052 87.0819 76.9052 87.0819 76.0365 87.208C75.1679 87.334 75.1679 87.334 75.2895 88.172C75.4111 89.01 75.4111 89.01 76.2798 88.8839Z" fill="#E8BEA8"/>
<path d="M70.7465 93.5361C70.3122 93.5991 69.8778 93.6622 69.9995 94.5001C70.1211 95.3381 70.1211 95.3381 70.9898 95.212C71.8584 95.0859 71.8584 95.0859 71.7368 94.248C71.6151 93.41 71.6151 93.41 70.7465 93.5361Z" fill="#E8BEA8"/>
<path d="M64.77 101.251C65.2043 101.188 65.6387 101.125 65.517 100.287C65.3954 99.4491 65.3954 99.4491 64.5268 99.5751C63.6581 99.7012 63.6581 99.7012 63.7797 100.539C63.9014 101.377 63.9014 101.377 64.77 101.251Z" fill="#E8BEA8"/>
<path d="M58.7416 105.548C58.3073 105.611 57.8729 105.674 57.9946 106.512C58.1162 107.35 58.1162 107.35 58.9849 107.224C59.8535 107.098 59.8535 107.098 59.7319 106.26C59.6103 105.422 59.6103 105.422 58.7416 105.548Z" fill="#E8BEA8"/>
<path d="M52.4008 110.747C51.9665 110.81 51.5321 110.873 51.6538 111.711C51.7754 112.549 51.7754 112.549 52.644 112.423C53.5127 112.297 53.5127 112.297 53.3911 111.459C53.2694 110.621 53.2694 110.621 52.4008 110.747Z" fill="#E8BEA8"/>
<path d="M47.1108 117.072C47.05 116.653 46.9892 116.234 46.1205 116.36C45.2519 116.486 45.2519 116.486 45.3735 117.324C45.4951 118.162 45.4951 118.162 46.3638 118.036C47.2324 117.91 47.2324 117.91 47.1108 117.072Z" fill="#E8BEA8"/>
<path d="M39.7797 121.56C39.2999 121.629 38.9655 122.061 39.0327 122.524C39.0998 122.986 39.5432 123.305 40.0229 123.235C40.5027 123.166 40.8371 122.734 40.77 122.271C40.7028 121.809 40.2594 121.49 39.7797 121.56Z" fill="#E8BEA8"/>
<path d="M33.0043 126.821C32.57 126.884 32.1356 126.947 32.2573 127.785C32.3789 128.623 32.3789 128.623 33.2476 128.497C34.1162 128.371 34.1162 128.371 33.9946 127.533C33.8729 126.695 33.8729 126.695 33.0043 126.821Z" fill="#E8BEA8"/>
<path d="M26.1674 131.665C25.7331 131.728 25.2987 131.791 25.4204 132.629C25.542 133.467 25.542 133.467 26.4106 133.341C27.2793 133.215 27.2793 133.215 27.1577 132.377C27.036 131.539 27.036 131.539 26.1674 131.665Z" fill="#E8BEA8"/>
<path d="M19.3315 136.509C18.8971 136.572 18.4628 136.635 18.5844 137.473C18.7061 138.311 18.7061 138.311 19.5747 138.185C20.4434 138.059 20.4434 138.059 20.3217 137.221C20.2001 136.383 20.2001 136.383 19.3315 136.509Z" fill="#E8BEA8"/>
<path d="M12.9907 141.705C12.9299 141.286 12.869 140.867 12.0004 140.993C11.1317 141.119 11.1318 141.119 11.2534 141.957C11.375 142.795 11.375 142.795 12.2437 142.669C13.1123 142.543 13.1123 142.543 12.9907 141.705Z" fill="#E8BEA8"/>
<path d="M5.10392 145.415C4.6696 145.478 4.23527 145.541 4.3569 146.379C4.47853 147.217 4.47853 147.217 5.34718 147.091C6.21583 146.965 6.21582 146.965 6.09419 146.127C5.97256 145.289 5.97257 145.289 5.10392 145.415Z" fill="#E8BEA8"/>
<path d="M138.803 0.231553C139.238 0.168511 139.672 0.105466 139.55 -0.732504C139.429 -1.57047 139.429 -1.57046 138.56 -1.44438C137.691 -1.31829 137.691 -1.31831 137.813 -0.480336C137.935 0.357634 137.935 0.357638 138.803 0.231553Z" fill="#E8BEA8"/>
<path d="M135.746 6.66547C135.746 6.66547 134.877 6.79154 134.938 7.21053C134.999 7.62951 135.059 8.0485 135.494 7.98546C135.928 7.92242 136.362 7.85938 136.301 7.4404C136.241 7.02141 136.18 6.60242 135.746 6.66547Z" fill="#E8BEA8"/>
<path d="M132.871 14.3569C132.871 14.3569 132.002 14.483 132.063 14.9019C132.124 15.3209 132.184 15.7399 132.619 15.6769C133.053 15.6138 133.487 15.5508 133.426 15.1318C133.366 14.7128 133.305 14.2938 132.871 14.3569Z" fill="#E8BEA8"/>
<path d="M129.744 23.3683C129.744 23.3683 130.612 23.2422 130.551 22.8232C130.491 22.4042 130.43 21.9852 129.996 22.0483C129.561 22.1113 129.127 22.1744 129.188 22.5933C129.249 23.0123 129.309 23.4313 129.744 23.3683Z" fill="#E8BEA8"/>
<path d="M126.748 30.2216C126.748 30.2216 126.626 29.3837 126.192 29.4467C125.757 29.5098 125.323 29.5728 125.384 29.9918C125.445 30.4108 125.506 30.8298 125.94 30.7667C126.374 30.7037 126.809 30.6406 126.748 30.2216Z" fill="#E8BEA8"/>
<path d="M122.135 38.1612C122.135 38.1612 123.004 38.0352 122.943 37.6162C122.882 37.1972 122.821 36.7782 122.387 36.8412C121.953 36.9043 121.518 36.9673 121.579 37.3863C121.64 37.8053 121.701 38.2243 122.135 38.1612Z" fill="#E8BEA8"/>
<path d="M117.775 44.7847C117.775 44.7847 117.896 45.6227 118.331 45.5597C118.765 45.4966 119.199 45.4336 119.138 45.0146C119.078 44.5956 119.017 44.1766 118.582 44.2397C118.148 44.3027 117.714 44.3658 117.775 44.7847Z" fill="#E8BEA8"/>
<path d="M114.283 51.2827C114.283 51.2827 113.414 51.4087 113.475 51.8277C113.536 52.2467 113.596 52.6657 114.031 52.6026C114.465 52.5396 114.899 52.4766 114.839 52.0576C114.778 51.6386 114.717 51.2196 114.283 51.2827Z" fill="#E8BEA8"/>
<path d="M109.983 58.3217C109.983 58.3217 109.114 58.4478 109.175 58.8668C109.236 59.2858 109.297 59.7048 109.731 59.6417C110.165 59.5787 110.6 59.5156 110.539 59.0966C110.478 58.6776 110.417 58.2587 109.983 58.3217Z" fill="#E8BEA8"/>
<path d="M106.177 65.7177C106.177 65.7177 106.056 64.8798 105.622 64.9428C105.187 65.0059 104.753 65.0689 104.814 65.4879C104.874 65.9069 104.935 66.3258 105.37 66.2628C105.804 66.1998 106.238 66.1367 106.177 65.7177Z" fill="#E8BEA8"/>
<path d="M100.393 71.6928C100.393 71.6928 99.5243 71.8189 99.5851 72.2379C99.646 72.6569 99.7068 73.0758 100.141 73.0128C100.575 72.9498 101.01 72.8867 100.949 72.4677C100.888 72.0488 100.827 71.6298 100.393 71.6928Z" fill="#E8BEA8"/>
<path d="M95.5981 78.3764C95.5981 78.3764 94.7294 78.5025 94.7902 78.9215C94.8511 79.3405 94.9119 79.7594 95.3462 79.6964C95.7805 79.6334 96.2148 79.5703 96.154 79.1513C96.0932 78.7323 96.0324 78.3133 95.5981 78.3764Z" fill="#E8BEA8"/>
<path d="M90.9245 85.9013C90.9245 85.9013 90.8029 85.0634 90.3686 85.1264C89.9342 85.1894 89.4999 85.2525 89.5607 85.6715C89.6216 86.0905 89.6824 86.5094 90.1167 86.4464C90.551 86.3834 90.9854 86.3203 90.9245 85.9013Z" fill="#E8BEA8"/>
<path d="M85.6355 92.2295C85.6355 92.2295 85.5138 91.3915 85.0795 91.4545C84.6452 91.5176 84.2109 91.5806 84.2717 91.9996C84.3325 92.4186 84.3933 92.8376 84.8276 92.7745C85.262 92.7115 85.6963 92.6484 85.6355 92.2295Z" fill="#E8BEA8"/>
<path d="M79.3549 97.8451C79.3549 97.8451 78.4863 97.9712 78.5471 98.3902C78.6079 98.8092 78.6687 99.2282 79.103 99.1651C79.5374 99.1021 79.9717 99.0391 79.9109 98.6201C79.85 98.2011 79.7892 97.7821 79.3549 97.8451Z" fill="#E8BEA8"/>
<path d="M73.5698 103.822C73.5698 103.822 72.7011 103.948 72.7619 104.367C72.8227 104.786 72.8835 105.205 73.3179 105.142C73.7522 105.079 74.1865 105.016 74.1257 104.597C74.0649 104.178 74.0041 103.759 73.5698 103.822Z" fill="#E8BEA8"/>
<path d="M68.28 110.151C68.28 110.151 68.1584 109.313 67.7241 109.376C67.2897 109.439 66.8554 109.502 66.9162 109.921C66.977 110.34 67.0378 110.759 67.4722 110.696C67.9065 110.633 68.3408 110.57 68.28 110.151Z" fill="#E8BEA8"/>
<path d="M61.5043 115.412C61.5043 115.412 60.6357 115.538 60.6965 115.957C60.7573 116.376 60.8181 116.795 61.2524 116.732C61.6868 116.669 62.1211 116.605 62.0603 116.186C61.9995 115.767 61.9386 115.349 61.5043 115.412Z" fill="#E8BEA8"/>
<path d="M55.1635 120.61C54.6837 120.68 54.3493 121.112 54.4165 121.574C54.4836 122.037 54.927 122.356 55.4067 122.286C55.8865 122.217 56.2209 121.785 56.1538 121.322C56.0866 120.859 55.6432 120.541 55.1635 120.61Z" fill="#E8BEA8"/>
<path d="M49.8738 126.94C49.8738 126.94 49.7521 126.102 49.3178 126.165C48.8835 126.229 48.4492 126.292 48.51 126.711C48.5708 127.13 48.6316 127.548 49.0659 127.485C49.5003 127.422 49.9346 127.359 49.8738 126.94Z" fill="#E8BEA8"/>
<path d="M43.0984 132.202C43.0984 132.202 42.9767 131.364 42.5424 131.427C42.1081 131.49 41.6737 131.553 41.7346 131.972C41.7954 132.391 41.8562 132.81 42.2905 132.747C42.7249 132.684 43.1592 132.621 43.0984 132.202Z" fill="#E8BEA8"/>
<path d="M35.7065 136.271C35.7065 136.271 34.8378 136.397 34.8986 136.816C34.9595 137.235 35.0203 137.654 35.4546 137.591C35.8889 137.528 36.3232 137.465 36.2624 137.046C36.2016 136.627 36.1408 136.208 35.7065 136.271Z" fill="#E8BEA8"/>
<path d="M28.9301 141.529C28.9301 141.529 28.0615 141.655 28.1223 142.074C28.1831 142.493 28.2439 142.912 28.6782 142.849C29.1125 142.786 29.5469 142.723 29.4861 142.304C29.4252 141.885 29.3644 141.466 28.9301 141.529Z" fill="#E8BEA8"/>
<path d="M21.599 146.017C21.599 146.017 20.7304 146.143 20.7912 146.562C20.852 146.981 20.9128 147.4 21.3472 147.337C21.7815 147.274 22.2158 147.211 22.155 146.792C22.0942 146.373 22.0334 145.954 21.599 146.017Z" fill="#E8BEA8"/>
<path d="M14.7026 150.443C14.7026 150.443 13.8339 150.569 13.8947 150.988C13.9555 151.407 14.0164 151.826 14.4507 151.763C14.885 151.7 15.3193 151.637 15.2585 151.218C15.1977 150.799 15.1369 150.38 14.7026 150.443Z" fill="#E8BEA8"/>
<path d="M7.30998 154.509C7.30998 154.509 6.44134 154.635 6.50215 155.054C6.56297 155.473 6.62378 155.892 7.0581 155.829C7.49243 155.766 7.92676 155.703 7.86594 155.284C7.80513 154.865 7.7443 154.446 7.30998 154.509Z" fill="#E8BEA8"/>
<path d="M-0.0816417 158.579C-0.515967 158.642 -0.950296 158.705 -0.828665 159.543C-0.707034 160.381 -0.707031 160.381 0.16162 160.255C1.03027 160.129 1.03027 160.129 0.908642 159.291C0.787011 158.453 0.787009 158.453 -0.0816417 158.579Z" fill="#E8BEA8"/>
<path d="M147.351 4.12608C147.351 4.12608 148.22 4.00001 148.159 3.58102C148.098 3.16204 148.037 2.74305 147.603 2.80609C147.169 2.86913 146.734 2.93217 146.795 3.35115C146.856 3.77014 146.917 4.18913 147.351 4.12608Z" fill="#E8BEA8"/>
<path d="M144.293 10.56C144.293 10.56 143.425 10.6861 143.486 11.1051C143.546 11.524 143.607 11.943 144.042 11.88C144.476 11.8169 144.91 11.7539 144.849 11.3349C144.789 10.9159 144.728 10.497 144.293 10.56Z" fill="#E8BEA8"/>
<path d="M141.418 18.2485C141.418 18.2485 140.984 18.3115 140.611 18.7936C140.237 19.2756 140.671 19.2126 141.166 19.5685C141.662 19.9244 141.601 19.5054 141.974 19.0234C142.348 18.5414 141.914 18.6044 141.418 18.2485Z" fill="#E8BEA8"/>
<path d="M138.048 25.5834C138.048 25.5834 137.18 25.7095 137.24 26.1285C137.301 26.5475 137.362 26.9665 137.796 26.9034C138.231 26.8404 138.665 26.7774 138.604 26.3584C138.543 25.9394 138.483 25.5204 138.048 25.5834Z" fill="#E8BEA8"/>
<path d="M135.234 33.6943C135.234 33.6943 135.112 32.8563 134.678 32.9194C134.244 32.9824 133.81 33.0455 133.87 33.4645C133.931 33.8834 133.992 34.3024 134.426 34.2394C134.861 34.1763 135.295 34.1133 135.234 33.6943Z" fill="#E8BEA8"/>
<path d="M130.682 42.0558C130.682 42.0558 131.551 41.9297 131.49 41.5107C131.429 41.0917 131.368 40.6727 130.934 40.7358C130.5 40.7988 130.065 40.8619 130.126 41.2808C130.187 41.6998 130.248 42.1188 130.682 42.0558Z" fill="#E8BEA8"/>
<path d="M127.069 47.7133C127.069 47.7133 126.634 47.7764 126.261 48.2584C125.887 48.7404 126.322 48.6774 126.817 49.0333C127.312 49.3893 127.251 48.9703 127.625 48.4883C127.998 48.0062 127.564 48.0693 127.069 47.7133Z" fill="#E8BEA8"/>
<path d="M122.829 55.1743C122.829 55.1743 122.395 55.2373 122.022 55.7193C121.648 56.2014 122.082 56.1383 122.578 56.4943C123.073 56.8502 123.012 56.4312 123.385 55.9492C123.759 55.4672 123.325 55.5302 122.829 55.1743Z" fill="#E8BEA8"/>
<path d="M118.53 62.2123C118.53 62.2123 117.661 62.3384 117.722 62.7574C117.783 63.1764 117.844 63.5954 118.278 63.5323C118.712 63.4693 119.146 63.4062 119.086 62.9873C119.025 62.5683 118.964 62.1493 118.53 62.2123Z" fill="#E8BEA8"/>
<path d="M114.292 69.6731C114.292 69.6731 114.231 69.2541 113.736 68.8982C113.241 68.5422 113.302 68.9612 112.928 69.4432C112.555 69.9253 112.989 69.8622 113.484 70.2182C113.979 70.5741 113.918 70.1551 114.292 69.6731Z" fill="#E8BEA8"/>
<path d="M109.001 76.0053C109.001 76.0053 108.133 76.1314 108.194 76.5504C108.254 76.9694 108.315 77.3883 108.75 77.3253C109.184 77.2623 109.618 77.1992 109.557 76.7802C109.497 76.3613 109.436 75.9423 109.001 76.0053Z" fill="#E8BEA8"/>
<path d="M104.207 82.6889C104.207 82.6889 103.339 82.815 103.4 83.234C103.46 83.653 103.521 84.0719 103.956 84.0089C104.39 83.9459 104.824 83.8828 104.763 83.4638C104.703 83.0448 104.642 82.6259 104.207 82.6889Z" fill="#E8BEA8"/>
<path d="M99.4734 89.7959C99.4734 89.7959 99.3517 88.9579 98.9174 89.0209C98.4831 89.084 98.0488 89.147 98.1096 89.566C98.1704 89.985 98.2312 90.404 98.6655 90.3409C99.0999 90.2779 99.5342 90.2149 99.4734 89.7959Z" fill="#E8BEA8"/>
<path d="M94.1833 96.124C94.1833 96.124 94.0617 95.286 93.6274 95.3491C93.1931 95.4121 92.7587 95.4751 92.8195 95.8941C92.8804 96.3131 92.9412 96.7321 93.3755 96.6691C93.8098 96.606 94.2441 96.543 94.1833 96.124Z" fill="#E8BEA8"/>
<path d="M88.3373 101.677C88.3373 101.677 87.4687 101.803 87.5295 102.222C87.5903 102.641 87.6511 103.06 88.0854 102.997C88.5198 102.934 88.9541 102.871 88.8933 102.452C88.8325 102.033 88.7716 101.614 88.3373 101.677Z" fill="#E8BEA8"/>
<path d="M82.5512 107.65C82.5512 107.65 81.6826 107.776 81.7434 108.195C81.8042 108.614 81.865 109.033 82.2993 108.97C82.7336 108.907 83.168 108.844 83.1072 108.425C83.0463 108.006 82.9855 107.587 82.5512 107.65Z" fill="#E8BEA8"/>
<path d="M76.8275 114.045C76.8275 114.045 76.3932 114.108 76.0197 114.59C75.6462 115.072 76.0805 115.009 76.5757 115.365C77.0708 115.721 77.01 115.302 77.3835 114.82C77.757 114.338 77.3227 114.401 76.8275 114.045Z" fill="#E8BEA8"/>
<path d="M70.5473 119.662C70.5473 119.662 69.6786 119.788 69.7395 120.207C69.8003 120.626 69.8611 121.045 70.2954 120.982C70.7298 120.919 71.1641 120.855 71.1032 120.436C71.0424 120.017 70.9816 119.599 70.5473 119.662Z" fill="#E8BEA8"/>
<path d="M64.267 125.279C64.267 125.279 63.3984 125.405 63.4592 125.824C63.52 126.243 63.5808 126.662 64.0151 126.599C64.4495 126.536 64.8838 126.473 64.823 126.054C64.7622 125.635 64.7013 125.216 64.267 125.279Z" fill="#E8BEA8"/>
<path d="M57.9867 130.896C57.9867 130.896 57.1181 131.022 57.1789 131.441C57.2397 131.86 57.3005 132.279 57.7349 132.216C58.1692 132.153 58.6035 132.09 58.5427 131.671C58.4819 131.252 58.4211 130.833 57.9867 130.896Z" fill="#E8BEA8"/>
<path d="M52.1404 136.452C52.1404 136.452 52.0187 135.614 51.5844 135.677C51.1501 135.74 50.7158 135.803 50.7766 136.222C50.8374 136.641 50.8982 137.06 51.3325 136.997C51.7668 136.934 52.2012 136.871 52.1404 136.452Z" fill="#E8BEA8"/>
<path d="M45.8005 141.647C45.8005 141.647 45.6789 140.809 45.2445 140.872C44.8102 140.936 44.3759 140.999 44.4367 141.418C44.4975 141.837 44.5583 142.256 44.9927 142.192C45.427 142.129 45.8613 142.066 45.8005 141.647Z" fill="#E8BEA8"/>
<path d="M38.0346 146.201C38.0346 146.201 37.1659 146.327 37.2267 146.746C37.2876 147.165 37.3484 147.584 37.7827 147.521C38.217 147.458 38.6514 147.395 38.5906 146.976C38.5297 146.557 38.4689 146.138 38.0346 146.201Z" fill="#E8BEA8"/>
<path d="M31.1986 151.041C31.1986 151.041 30.7643 151.105 30.3908 151.587C30.0173 152.069 30.4516 152.006 30.9468 152.361C31.4419 152.717 31.3811 152.298 31.7546 151.816C32.1281 151.334 31.6938 151.397 31.1986 151.041Z" fill="#E8BEA8"/>
<path d="M24.3012 155.462C24.3012 155.462 23.4325 155.588 23.4934 156.007C23.5542 156.426 23.615 156.845 24.0493 156.782C24.4836 156.719 24.918 156.656 24.8572 156.237C24.7963 155.818 24.7355 155.399 24.3012 155.462Z" fill="#E8BEA8"/>
<path d="M16.9691 159.952C16.9691 159.952 16.5348 160.015 16.1613 160.497C15.7878 160.979 16.2221 160.916 16.7173 161.272C17.2124 161.628 17.1516 161.209 17.5251 160.727C17.8986 160.245 17.4643 160.308 16.9691 159.952Z" fill="#E8BEA8"/>
<path d="M9.57754 164.022C9.57754 164.022 9.14321 164.085 8.7697 164.567C8.39619 165.049 8.83053 164.986 9.32567 165.342C9.82081 165.698 9.76 165.279 10.1335 164.797C10.507 164.315 10.0727 164.378 9.57754 164.022Z" fill="#E8BEA8"/>
<path d="M2.12445 167.669C2.12445 167.669 1.25579 167.795 1.31661 168.214C1.37742 168.633 1.43825 169.052 1.87257 168.989C2.3069 168.926 2.74121 168.863 2.6804 168.444C2.61958 168.025 2.55877 167.606 2.12445 167.669Z" fill="#E8BEA8"/>
<path d="M158.591 -0.927284C158.591 -0.927284 158.157 -0.864249 157.783 -0.382222C157.41 0.0998048 157.844 0.0367657 158.339 0.392708C158.834 0.748651 158.774 0.329673 159.147 -0.152353C159.521 -0.63438 159.086 -0.571341 158.591 -0.927284Z" fill="#E8BEA8"/>
<path d="M156.272 7.53804C156.272 7.53804 156.211 7.11906 155.777 7.1821C155.343 7.24514 155.343 7.24514 155.404 7.66412C155.464 8.08311 155.464 8.08312 155.899 8.02007C156.333 7.95703 156.333 7.95702 156.272 7.53804Z" fill="#E8BEA8"/>
<path d="M152.841 14.4516C152.841 14.4516 152.406 14.5147 152.467 14.9337C152.528 15.3527 152.528 15.3526 152.962 15.2896C153.396 15.2266 153.396 15.2266 153.336 14.8076C153.275 14.3886 153.275 14.3886 152.841 14.4516Z" fill="#E8BEA8"/>
<path d="M149.966 22.143C149.966 22.143 149.531 22.2061 149.592 22.6251C149.653 23.0441 149.653 23.0441 150.087 22.981C150.521 22.918 150.521 22.918 150.461 22.499C150.4 22.08 150.4 22.08 149.966 22.143Z" fill="#E8BEA8"/>
<path d="M146.656 29.8969C146.656 29.8969 146.222 29.96 146.282 30.379C146.343 30.798 146.343 30.798 146.778 30.7349C147.212 30.6719 147.212 30.6719 147.151 30.2529C147.09 29.8339 147.09 29.8339 146.656 29.8969Z" fill="#E8BEA8"/>
<path d="M143.781 37.5849C143.781 37.5849 143.72 37.1659 143.286 37.229C142.852 37.292 142.852 37.292 142.912 37.711C142.973 38.13 142.973 38.13 143.407 38.0669C143.842 38.0039 143.842 38.0039 143.781 37.5849Z" fill="#E8BEA8"/>
<path d="M139.977 44.9833C139.977 44.9833 139.916 44.5644 139.482 44.6274C139.048 44.6905 139.048 44.6904 139.109 45.1094C139.169 45.5284 139.169 45.5284 139.604 45.4654C140.038 45.4023 140.038 45.4023 139.977 44.9833Z" fill="#E8BEA8"/>
<path d="M135.182 51.6704C135.182 51.6704 134.748 51.7334 134.809 52.1524C134.87 52.5714 134.87 52.5714 135.304 52.5084C135.738 52.4453 135.738 52.4453 135.677 52.0263C135.617 51.6073 135.617 51.6073 135.182 51.6704Z" fill="#E8BEA8"/>
<path d="M131.378 59.0688C131.378 59.0688 130.943 59.1319 131.004 59.5509C131.065 59.9698 131.065 59.9698 131.499 59.9068C131.934 59.8437 131.934 59.8438 131.873 59.4248C131.812 59.0058 131.812 59.0058 131.378 59.0688Z" fill="#E8BEA8"/>
<path d="M127.078 66.1079C127.078 66.1079 126.644 66.1709 126.704 66.5899C126.765 67.0089 126.765 67.0089 127.199 66.9459C127.634 66.8828 127.634 66.8828 127.573 66.4638C127.512 66.0448 127.512 66.0448 127.078 66.1079Z" fill="#E8BEA8"/>
<path d="M122.84 73.5654C122.84 73.5654 122.779 73.1464 122.344 73.2094C121.91 73.2725 121.91 73.2725 121.971 73.6915C122.032 74.1105 122.032 74.1105 122.466 74.0474C122.9 73.9844 122.9 73.9844 122.84 73.5654Z" fill="#E8BEA8"/>
<path d="M117.55 79.8969C117.55 79.8969 117.115 79.96 117.176 80.379C117.237 80.798 117.237 80.798 117.671 80.7349C118.105 80.6719 118.105 80.6719 118.045 80.2529C117.984 79.8339 117.984 79.8339 117.55 79.8969Z" fill="#E8BEA8"/>
<path d="M112.754 86.5849L112.319 86.648L112.38 87.0669L112.814 87.0039L112.754 86.5849Z" fill="#E8BEA8"/>
<path d="M107.899 92.8501C107.899 92.8501 107.465 92.9131 107.526 93.3321C107.586 93.7511 107.586 93.7511 108.021 93.688C108.455 93.625 108.455 93.625 108.394 93.206C108.333 92.787 108.333 92.787 107.899 92.8501Z" fill="#E8BEA8"/>
<path d="M103.165 99.9521C103.165 99.9521 103.104 99.5331 102.67 99.5962C102.235 99.6592 102.235 99.6592 102.296 100.078C102.357 100.497 102.357 100.497 102.791 100.434C103.226 100.371 103.226 100.371 103.165 99.9521Z" fill="#E8BEA8"/>
<path d="M97.4411 106.347C97.4411 106.347 97.3803 105.928 96.946 105.991C96.5117 106.054 96.5117 106.054 96.5725 106.473C96.6333 106.892 96.6333 106.892 97.0676 106.829C97.502 106.766 97.502 106.766 97.4411 106.347Z" fill="#E8BEA8"/>
<path d="M91.1599 111.963C91.1599 111.963 90.7255 112.026 90.7864 112.445C90.8472 112.864 90.8472 112.864 91.2815 112.801C91.7158 112.738 91.7158 112.738 91.655 112.319C91.5942 111.9 91.5942 111.9 91.1599 111.963Z" fill="#E8BEA8"/>
<path d="M85.3757 117.936C85.3757 117.936 84.9414 117.999 85.0022 118.418C85.063 118.837 85.063 118.837 85.4973 118.774C85.9316 118.711 85.9316 118.711 85.8708 118.292C85.81 117.873 85.81 117.873 85.3757 117.936Z" fill="#E8BEA8"/>
<path d="M80.0847 124.265C80.0847 124.265 80.0239 123.846 79.5896 123.909C79.1552 123.972 79.1552 123.972 79.216 124.391C79.2769 124.81 79.2769 124.81 79.7112 124.747C80.1455 124.684 80.1455 124.684 80.0847 124.265Z" fill="#E8BEA8"/>
<path d="M73.3102 129.526C73.3102 129.526 72.8759 129.589 72.9367 130.008C72.9976 130.427 72.9976 130.427 73.4319 130.364C73.8662 130.301 73.8662 130.301 73.8054 129.882C73.7446 129.463 73.7446 129.463 73.3102 129.526Z" fill="#E8BEA8"/>
<path d="M67.029 135.147C67.029 135.147 66.5947 135.21 66.6555 135.629C66.7163 136.048 66.7163 136.048 67.1506 135.985C67.585 135.922 67.585 135.922 67.5241 135.503C67.4633 135.084 67.4633 135.084 67.029 135.147Z" fill="#E8BEA8"/>
<path d="M60.6892 140.343L60.2549 140.406L60.3157 140.825L60.75 140.762L60.6892 140.343Z" fill="#E8BEA8"/>
<path d="M54.9031 146.315C54.9031 146.315 54.8422 145.896 54.4079 145.959C53.9736 146.022 53.9736 146.022 54.0344 146.441C54.0952 146.86 54.0952 146.86 54.5295 146.797C54.9639 146.734 54.9639 146.734 54.9031 146.315Z" fill="#E8BEA8"/>
<path d="M48.0674 151.16L48.0066 150.741L47.5722 150.804L47.633 151.223L48.0674 151.16Z" fill="#E8BEA8"/>
<path d="M40.736 155.647C40.736 155.647 40.3017 155.71 40.3625 156.129C40.4233 156.548 40.4233 156.548 40.8577 156.485C41.292 156.422 41.292 156.422 41.2312 156.003C41.1704 155.584 41.1704 155.584 40.736 155.647Z" fill="#E8BEA8"/>
<path d="M33.8386 160.073C33.8386 160.073 33.4042 160.136 33.4651 160.555C33.5259 160.974 33.5259 160.974 33.9602 160.911C34.3945 160.848 34.3945 160.848 34.3337 160.429C34.2729 160.01 34.2729 160.01 33.8386 160.073Z" fill="#E8BEA8"/>
<path d="M26.5075 164.557C26.5075 164.557 26.0732 164.62 26.134 165.039C26.1948 165.458 26.1948 165.458 26.6291 165.395C27.0635 165.332 27.0635 165.332 27.0027 164.913C26.9418 164.494 26.9418 164.494 26.5075 164.557Z" fill="#E8BEA8"/>
<path d="M19.1755 169.046L18.7412 169.109L18.802 169.528L19.2363 169.465L19.1755 169.046Z" fill="#E8BEA8"/>
<path d="M11.7839 173.112C11.7839 173.112 11.3496 173.175 11.4104 173.594C11.4712 174.013 11.4712 174.013 11.9055 173.95C12.3399 173.887 12.3398 173.887 12.279 173.468C12.2182 173.049 12.2182 173.049 11.7839 173.112Z" fill="#E8BEA8"/>
<path d="M4.39229 177.178C4.39229 177.178 3.95796 177.241 4.01877 177.66C4.07959 178.079 4.0796 178.079 4.51392 178.016C4.94825 177.953 4.94824 177.953 4.88743 177.534C4.82661 177.115 4.82662 177.115 4.39229 177.178Z" fill="#E8BEA8"/>
<path d="M167.138 2.96774L166.704 3.03078L166.765 3.44976L167.199 3.38672L167.138 2.96774Z" fill="#E8BEA8"/>
<path d="M164.759 11.0117L164.698 10.5927L164.264 10.6558L164.324 11.0748L164.759 11.0117Z" fill="#E8BEA8"/>
<path d="M161.388 18.3466L160.954 18.4097L161.015 18.8287L161.449 18.7656L161.388 18.3466Z" fill="#E8BEA8"/>
<path d="M158.513 26.0341L158.079 26.0972L158.14 26.5162L158.574 26.4531L158.513 26.0341Z" fill="#E8BEA8"/>
<path d="M155.205 33.792L154.77 33.855L154.831 34.274L155.266 34.2109L155.205 33.792Z" fill="#E8BEA8"/>
<path d="M151.4 41.1884C151.4 41.1884 151.4 41.1884 150.965 41.2515C150.531 41.3145 150.965 41.2515 151.026 41.6705C151.087 42.0895 151.026 41.6705 151.461 41.6074C151.895 41.5444 151.461 41.6074 151.4 41.1884Z" fill="#E8BEA8"/>
<path d="M148.03 48.522C147.79 48.5568 147.623 48.7726 147.656 49.004C147.69 49.2354 147.912 49.3947 148.152 49.3599C148.391 49.3251 148.559 49.1093 148.525 48.8779C148.492 48.6465 148.27 48.4871 148.03 48.522Z" fill="#E8BEA8"/>
<path d="M143.729 55.5615L143.295 55.6245L143.356 56.0435L143.79 55.9805L143.729 55.5615Z" fill="#E8BEA8"/>
<path d="M139.926 62.9599L139.491 63.023L139.552 63.4419L139.986 63.3789L139.926 62.9599Z" fill="#E8BEA8"/>
<path d="M135.626 69.999L135.191 70.062L135.252 70.481L135.687 70.418L135.626 69.999Z" fill="#E8BEA8"/>
<path d="M130.891 77.1045L130.457 77.1675L130.518 77.5865L130.952 77.5234L130.891 77.1045Z" fill="#E8BEA8"/>
<path d="M126.531 83.7295L126.097 83.7925L126.157 84.2115L126.592 84.1484L126.531 83.7295Z" fill="#E8BEA8"/>
<path d="M121.302 90.4755L120.868 90.5386L120.929 90.9576L121.363 90.8945L121.302 90.4755Z" fill="#E8BEA8"/>
<path d="M116.508 97.1591L116.073 97.2222L116.134 97.6412L116.568 97.5781L116.508 97.1591Z" fill="#E8BEA8"/>
<path d="M111.218 103.491L110.783 103.554L110.844 103.973L111.278 103.91L111.218 103.491Z" fill="#E8BEA8"/>
<path d="M106.423 110.176L106.362 109.757L105.928 109.82L105.989 110.239L106.423 110.176Z" fill="#E8BEA8"/>
<path d="M100.203 116.21L99.7685 116.273L99.8294 116.692L100.264 116.629L100.203 116.21Z" fill="#E8BEA8"/>
<path d="M94.4174 122.188C94.4174 122.188 94.4174 122.188 93.983 122.251C93.5487 122.315 93.983 122.251 94.0439 122.67C94.1047 123.089 94.0439 122.67 94.4782 122.607C94.9125 122.544 94.4782 122.607 94.4174 122.188Z" fill="#E8BEA8"/>
<path d="M88.6335 128.159L88.1992 128.222L88.26 128.641L88.6943 128.578L88.6335 128.159Z" fill="#E8BEA8"/>
<path d="M82.3532 133.776L81.9189 133.839L81.9797 134.258L82.4141 134.195L82.3532 133.776Z" fill="#E8BEA8"/>
<path d="M76.5066 139.331L76.0722 139.394L76.133 139.813L76.5674 139.75L76.5066 139.331Z" fill="#E8BEA8"/>
<path d="M69.7917 145.015L69.3574 145.078L69.4182 145.497L69.8525 145.434L69.7917 145.015Z" fill="#E8BEA8"/>
<path d="M63.4509 150.21L63.0166 150.273L63.0774 150.692L63.5117 150.629L63.4509 150.21Z" fill="#E8BEA8"/>
<path d="M57.1709 155.828L57.1101 155.409L56.6758 155.472L56.7366 155.891L57.1709 155.828Z" fill="#E8BEA8"/>
<path d="M49.8402 160.313C49.8402 160.313 49.8402 160.313 49.4059 160.376C48.9716 160.44 49.4059 160.376 49.4667 160.795C49.5275 161.214 49.4667 160.795 49.901 160.732C50.3354 160.669 49.901 160.732 49.8402 160.313Z" fill="#E8BEA8"/>
<path d="M43.0026 165.159C42.7628 165.193 42.5955 165.409 42.6291 165.641C42.6627 165.872 42.8844 166.031 43.1243 165.997C43.3641 165.962 43.5314 165.746 43.4978 165.515C43.4642 165.283 43.2425 165.124 43.0026 165.159Z" fill="#E8BEA8"/>
<path d="M36.1062 169.581L35.6719 169.644L35.7327 170.063L36.167 170L36.1062 169.581Z" fill="#E8BEA8"/>
<path d="M28.7751 174.069L28.3408 174.132L28.4016 174.551L28.8359 174.488L28.7751 174.069Z" fill="#E8BEA8"/>
<path d="M21.8783 178.489C21.8783 178.489 21.8783 178.489 21.444 178.552C21.0097 178.615 21.444 178.552 21.5048 178.971C21.5656 179.39 21.5048 178.971 21.9391 178.908C22.3734 178.845 21.9391 178.908 21.8783 178.489Z" fill="#E8BEA8"/>
<path d="M14.4861 182.558L14.0517 182.621L14.1126 183.04L14.5469 182.977L14.4861 182.558Z" fill="#E8BEA8"/>
<path d="M6.59836 186.272L6.16403 186.335L6.22484 186.754L6.65918 186.691L6.59836 186.272Z" fill="#E8BEA8"/>
<path d="M139.44 80.997C139.44 80.997 139.44 80.997 139.006 81.0601C138.571 81.1231 139.006 81.0601 139.066 81.4791C139.127 81.898 139.066 81.4791 139.501 81.416C139.935 81.353 139.501 81.416 139.44 80.997Z" fill="#E8BEA8"/>
<path d="M103.46 126.435C103.46 126.435 103.46 126.435 103.026 126.498C102.592 126.561 103.026 126.498 103.087 126.917C103.148 127.336 103.087 126.917 103.521 126.854C103.955 126.79 103.521 126.854 103.46 126.435Z" fill="#E8BEA8"/>
<path d="M91.3949 138.028C91.3949 138.028 91.3949 138.028 90.9606 138.091C90.5263 138.154 90.9606 138.091 91.0214 138.51C91.0822 138.929 91.0214 138.51 91.4557 138.447C91.89 138.384 91.4557 138.447 91.3949 138.028Z" fill="#E8BEA8"/>
<path d="M45.7054 174.606C45.7054 174.606 45.7055 174.606 45.2711 174.669C44.8368 174.732 45.2711 174.669 45.3319 175.088C45.3928 175.507 45.3319 175.088 45.7663 175.025C46.2006 174.962 45.7663 175.025 45.7054 174.606Z" fill="#E8BEA8"/>
<path d="M9.23963 195.298C9.23963 195.298 9.23962 195.298 8.80529 195.361C8.37097 195.424 8.80529 195.361 8.86611 195.78C8.92693 196.199 8.86612 195.78 9.30045 195.717C9.73477 195.654 9.30045 195.717 9.23963 195.298Z" fill="#E8BEA8"/>
</g>
<defs>
<clipPath id="clip0_1488_14159">
<rect width="398.5" height="436.5" fill="white" transform="translate(276.568 209.973) rotate(171.741)"/>
</clipPath>
</defs>
</svg>
